<svg xmlns="http://www.w3.org/2000/svg" xmlns:xlink="http://www.w3.org/1999/xlink" viewBox="0 0 430 430" width="430" height="430" preserveAspectRatio="xMidYMid meet" style="width: 100%; height: 100%; transform: translate3d(0px, 0px, 0px); content-visibility: visible;"><defs><clipPath id="__lottie_element_735"><rect width="430" height="430" x="0" y="0"/></clipPath><clipPath id="__lottie_element_737"><path d="M0,0 L430,0 L430,430 L0,430z"/></clipPath></defs><g clip-path="url(#__lottie_element_735)"><g clip-path="url(#__lottie_element_737)" transform="matrix(1,0,0,1,0,0)" opacity="1" style="display: block;"><g transform="matrix(1,0,0,1,-31,-36.75)" opacity="1" style="display: block;"><g opacity="1" transform="matrix(1,0,0,1,0,0)"><g opacity="1" transform="matrix(1,0,0,1,250,250)"><g opacity="1" transform="matrix(1,0,0,1,0,0)"><path class="primary" fill="rgb(75,179,253)" fill-opacity="1" d=" M121.31999969482422,-46.130001068115234 C103.3759994506836,-88.19599914550781 61.64899826049805,-117.68800354003906 13.027000427246094,-117.68800354003906 C-32.41699981689453,-117.68800354003906 -71.81600189208984,-91.91300201416016 -91.427001953125,-54.20100021362305 C-94.98999786376953,-55.36000061035156 -98.78800201416016,-56 -102.73899841308594,-56 C-122.96600341796875,-56 -139.35899353027344,-39.60300064086914 -139.35899353027344,-19.375999450683594 C-139.35899353027344,-16.66699981689453 -139.0449981689453,-14.03499984741211 -138.48800659179688,-11.494000434875488 C-160.28199768066406,-0.020999999716877937 -175.1649932861328,22.812999725341797 -175.1649932861328,49.15399932861328 C-175.1649932861328,87.00299835205078 -144.47999572753906,117.68800354003906 -106.63099670410156,117.68800354003906 C-86.56500244140625,117.68800354003906 77.69599914550781,117.68800354003906 90.31700134277344,117.68800354003906 C137.1750030517578,117.68800354003906 175.1649932861328,79.7020034790039 175.1649932861328,32.84400177001953 C175.1649932861328,-3.069000005722046 152.83799743652344,-33.74700164794922 121.31999969482422,-46.130001068115234z"/></g></g></g></g><g transform="matrix(1,0,0,1,162.38099670410156,213.25)" opacity="0.5" style="mix-blend-mode: multiply; display: block;"><g opacity="1" transform="matrix(1,0,0,1,0,0)" style="mix-blend-mode: multiply;"><path class="primary" fill="rgb(75,179,253)" fill-opacity="1" d=" M-26.794466018676758,49.21523666381836 C-26.794466018676758,22.874235153198242 -11.911465644836426,0.04023497551679611 9.88253402709961,-11.432765007019043 C9.325886726379395,-13.97376537322998 9.010534286499023,-16.605764389038086 9.010534286499023,-19.31476593017578 C9.010534286499023,-39.54176330566406 25.40453338623047,-55.93876647949219 45.631534576416016,-55.93876647949219 C49.58253479003906,-55.93876647949219 53.38053512573242,-55.298763275146484 56.94353485107422,-54.139766693115234 C68.89153289794922,-77.11676788330078 84.59468841552734,-97.92230987548828 118.94000244140625,-106.69300079345703 C103.84300231933594,-113.73799896240234 87.01200103759766,-117.68800354003906 69.25199890136719,-117.68800354003906 C23.808000564575195,-117.68800354003906 -15.590999603271484,-91.91300201416016 -35.20199966430664,-54.20100021362305 C-38.76499938964844,-55.36000061035156 -42.5620002746582,-56 -46.513999938964844,-56 C-66.73999786376953,-56 -83.13500213623047,-39.60300064086914 -83.13500213623047,-19.375999450683594 C-83.13500213623047,-16.66699981689453 -82.81999969482422,-14.03499984741211 -82.26300048828125,-11.494000434875488 C-104.05799865722656,-0.020999999716877937 -118.94000244140625,22.812999725341797 -118.94000244140625,49.15399932861328 C-118.94000244140625,87.00299835205078 -88.25499725341797,117.68800354003906 -50.40599822998047,117.68800354003906 C-40.513999938964844,117.68800354003906 -2.7954657077789307,117.74888610839844 41.739532470703125,117.74888610839844 C3.8905344009399414,117.74888610839844 -26.794466018676758,87.0642318725586 -26.794466018676758,49.21523666381836z"/></g></g><g transform="matrix(1,0,0,1,232.24200439453125,272.02899169921875)" opacity="1" style="display: block;"><g opacity="1" transform="matrix(1,0,0,1,0,0)"><path class="secondary" fill="rgb(58,51,71)" fill-opacity="1" d=" M5.107999801635742,103.17800903320312 C5.107999801635742,103.17800903320312 59.178001403808594,32.33800506591797 59.178001403808594,32.33800506591797 C59.178001403808594,32.33800506591797 59.178001403808594,32.33800506591797 59.178001403808594,32.33800506591797 C59.63100051879883,31.745006561279297 59.90999984741211,31.038005828857422 59.981998443603516,30.295005798339844 C60.05400085449219,29.552005767822266 59.91699981689453,28.804006576538086 59.58599853515625,28.135005950927734 C59.255001068115234,27.466005325317383 58.74399948120117,26.903654098510742 58.11000061035156,26.510005950927734 C57.47600173950195,26.11600685119629 56.74399948120117,25.907358169555664 55.99800109863281,25.90800666809082 C55.99800109863281,25.90800666809082 30.658000946044922,25.90800666809082 30.658000946044922,25.90800666809082 C30.128000259399414,25.90800666809082 29.618000030517578,25.69800567626953 29.243000030517578,25.32300567626953 C28.868000030517578,24.94800567626953 28.658000946044922,24.438005447387695 28.658000946044922,23.90800666809082 C28.658000946044922,23.90800666809082 28.658000946044922,-81.4489974975586 28.658000946044922,-81.4489974975586 C28.658000946044922,-84.10099792480469 27.604000091552734,-86.6449966430664 25.729000091552734,-88.5199966430664 C23.854000091552734,-90.3949966430664 21.309999465942383,-91.4489974975586 18.658000946044922,-91.4489974975586 C18.658000946044922,-91.4489974975586 -18.722000122070312,-91.4489974975586 -18.722000122070312,-91.4489974975586 C-21.374000549316406,-91.4489974975586 -23.917999267578125,-90.3949966430664 -25.792999267578125,-88.5199966430664 C-27.667999267578125,-86.6449966430664 -28.722000122070312,-84.10099792480469 -28.722000122070312,-81.4489974975586 C-28.722000122070312,-81.4489974975586 -28.722000122070312,23.88800621032715 -28.722000122070312,23.88800621032715 C-28.722000122070312,24.418006896972656 -28.933000564575195,24.928007125854492 -29.308000564575195,25.303007125854492 C-29.683000564575195,25.678007125854492 -30.191999435424805,25.88800621032715 -30.722000122070312,25.88800621032715 C-30.722000122070312,25.88800621032715 -56.00199890136719,25.88800621032715 -56.00199890136719,25.88800621032715 C-56.75,25.88800621032715 -57.483001708984375,26.09900665283203 -58.11800003051758,26.495006561279297 C-58.75299835205078,26.891006469726562 -59.26300048828125,27.457006454467773 -59.59199905395508,28.129005432128906 C-59.92100143432617,28.801006317138672 -60.055999755859375,29.551006317138672 -59.97999954223633,30.295005798339844 C-59.90399932861328,31.039005279541016 -59.619998931884766,31.747005462646484 -59.1619987487793,32.33800506591797 C-59.1619987487793,32.33800506591797 -4.4120001792907715,103.17800903320312 -4.4120001792907715,103.17800903320312 C-3.8519999980926514,103.90800476074219 -3.13100004196167,104.50000762939453 -2.305999994277954,104.9070053100586 C-1.4809999465942383,105.31400299072266 -0.5720000267028809,105.52600860595703 0.3479999899864197,105.52600860595703 C1.2680000066757202,105.52600860595703 2.1760001182556152,105.31400299072266 3.000999927520752,104.9070053100586 C3.8259999752044678,104.50000762939453 4.547999858856201,103.90800476074219 5.107999801635742,103.17800903320312z"/><path stroke-linecap="butt" stroke-linejoin="miter" fill-opacity="0" stroke-miterlimit="4" class="secondary" stroke="rgb(58,51,71)" stroke-opacity="1" stroke-width="1" d=" M5.107999801635742,103.17800903320312 C5.107999801635742,103.17800903320312 59.178001403808594,32.33800506591797 59.178001403808594,32.33800506591797 C59.178001403808594,32.33800506591797 59.178001403808594,32.33800506591797 59.178001403808594,32.33800506591797 C59.63100051879883,31.745006561279297 59.90999984741211,31.038005828857422 59.981998443603516,30.295005798339844 C60.05400085449219,29.552005767822266 59.91699981689453,28.804006576538086 59.58599853515625,28.135005950927734 C59.255001068115234,27.466005325317383 58.74399948120117,26.903654098510742 58.11000061035156,26.510005950927734 C57.47600173950195,26.11600685119629 56.74399948120117,25.907358169555664 55.99800109863281,25.90800666809082 C55.99800109863281,25.90800666809082 30.658000946044922,25.90800666809082 30.658000946044922,25.90800666809082 C30.128000259399414,25.90800666809082 29.618000030517578,25.69800567626953 29.243000030517578,25.32300567626953 C28.868000030517578,24.94800567626953 28.658000946044922,24.438005447387695 28.658000946044922,23.90800666809082 C28.658000946044922,23.90800666809082 28.658000946044922,-81.4489974975586 28.658000946044922,-81.4489974975586 C28.658000946044922,-84.10099792480469 27.604000091552734,-86.6449966430664 25.729000091552734,-88.5199966430664 C23.854000091552734,-90.3949966430664 21.309999465942383,-91.4489974975586 18.658000946044922,-91.4489974975586 C18.658000946044922,-91.4489974975586 -18.722000122070312,-91.4489974975586 -18.722000122070312,-91.4489974975586 C-21.374000549316406,-91.4489974975586 -23.917999267578125,-90.3949966430664 -25.792999267578125,-88.5199966430664 C-27.667999267578125,-86.6449966430664 -28.722000122070312,-84.10099792480469 -28.722000122070312,-81.4489974975586 C-28.722000122070312,-81.4489974975586 -28.722000122070312,23.88800621032715 -28.722000122070312,23.88800621032715 C-28.722000122070312,24.418006896972656 -28.933000564575195,24.928007125854492 -29.308000564575195,25.303007125854492 C-29.683000564575195,25.678007125854492 -30.191999435424805,25.88800621032715 -30.722000122070312,25.88800621032715 C-30.722000122070312,25.88800621032715 -56.00199890136719,25.88800621032715 -56.00199890136719,25.88800621032715 C-56.75,25.88800621032715 -57.483001708984375,26.09900665283203 -58.11800003051758,26.495006561279297 C-58.75299835205078,26.891006469726562 -59.26300048828125,27.457006454467773 -59.59199905395508,28.129005432128906 C-59.92100143432617,28.801006317138672 -60.055999755859375,29.551006317138672 -59.97999954223633,30.295005798339844 C-59.90399932861328,31.039005279541016 -59.619998931884766,31.747005462646484 -59.1619987487793,32.33800506591797 C-59.1619987487793,32.33800506591797 -4.4120001792907715,103.17800903320312 -4.4120001792907715,103.17800903320312 C-3.8519999980926514,103.90800476074219 -3.13100004196167,104.50000762939453 -2.305999994277954,104.9070053100586 C-1.4809999465942383,105.31400299072266 -0.5720000267028809,105.52600860595703 0.3479999899864197,105.52600860595703 C1.2680000066757202,105.52600860595703 2.1760001182556152,105.31400299072266 3.000999927520752,104.9070053100586 C3.8259999752044678,104.50000762939453 4.547999858856201,103.90800476074219 5.107999801635742,103.17800903320312z"/></g></g><g transform="matrix(1,0,0,1,202.24099731445312,272.0150146484375)" opacity="0.5" style="mix-blend-mode: multiply; display: block;"><g opacity="1" transform="matrix(1,0,0,1,0,0)"><path class="secondary" fill="rgb(58,51,71)" fill-opacity="1" d=" M29.999000549316406,-91.44499969482422 C29.999000549316406,-91.44499969482422 29.999000549316406,105.52200317382812 29.999000549316406,105.52200317382812 C29.999000549316406,105.52200317382812 29.999000549316406,105.52200317382812 29.999000549316406,105.52200317382812 C29.141000747680664,105.4830093383789 28.302000045776367,105.2560043334961 27.54199981689453,104.85700988769531 C26.781999588012695,104.4580078125 26.118000030517578,103.89600372314453 25.599000930786133,103.21200561523438 C25.599000930786133,103.21200561523438 -29.160999298095703,32.372005462646484 -29.160999298095703,32.372005462646484 C-29.6200008392334,31.780006408691406 -29.902999877929688,31.071006774902344 -29.979000091552734,30.326005935668945 C-30.05500030517578,29.58100700378418 -29.91900062561035,28.830005645751953 -29.589000701904297,28.15800666809082 C-29.259000778198242,27.486005783081055 -28.746000289916992,26.91900634765625 -28.110000610351562,26.524005889892578 C-27.474000930786133,26.129005432128906 -26.739999771118164,25.920005798339844 -25.990999221801758,25.922006607055664 C-25.990999221801758,25.922006607055664 -0.7210000157356262,25.922006607055664 -0.7210000157356262,25.922006607055664 C-0.19099999964237213,25.922006607055664 0.3179999887943268,25.71100616455078 0.6930000185966492,25.33600616455078 C1.0679999589920044,24.96100616455078 1.2790000438690186,24.45200538635254 1.2790000438690186,23.922006607055664 C1.2790000438690186,23.922006607055664 1.2790000438690186,-81.44499969482422 1.2790000438690186,-81.44499969482422 C1.2790000438690186,-84.09700012207031 2.3329999446868896,-86.64099884033203 4.208000183105469,-88.51599884033203 C6.083000183105469,-90.39099884033203 8.626999855041504,-91.44499969482422 11.279000282287598,-91.44499969482422 C11.279000282287598,-91.44499969482422 29.999000549316406,-91.44499969482422 29.999000549316406,-91.44499969482422z"/><path stroke-linecap="butt" stroke-linejoin="miter" fill-opacity="0" stroke-miterlimit="4" class="secondary" stroke="rgb(58,51,71)" stroke-opacity="1" stroke-width="1" d=" M29.999000549316406,-91.44499969482422 C29.999000549316406,-91.44499969482422 29.999000549316406,105.52200317382812 29.999000549316406,105.52200317382812 C29.999000549316406,105.52200317382812 29.999000549316406,105.52200317382812 29.999000549316406,105.52200317382812 C29.141000747680664,105.4830093383789 28.302000045776367,105.2560043334961 27.54199981689453,104.85700988769531 C26.781999588012695,104.4580078125 26.118000030517578,103.89600372314453 25.599000930786133,103.21200561523438 C25.599000930786133,103.21200561523438 -29.160999298095703,32.372005462646484 -29.160999298095703,32.372005462646484 C-29.6200008392334,31.780006408691406 -29.902999877929688,31.071006774902344 -29.979000091552734,30.326005935668945 C-30.05500030517578,29.58100700378418 -29.91900062561035,28.830005645751953 -29.589000701904297,28.15800666809082 C-29.259000778198242,27.486005783081055 -28.746000289916992,26.91900634765625 -28.110000610351562,26.524005889892578 C-27.474000930786133,26.129005432128906 -26.739999771118164,25.920005798339844 -25.990999221801758,25.922006607055664 C-25.990999221801758,25.922006607055664 -0.7210000157356262,25.922006607055664 -0.7210000157356262,25.922006607055664 C-0.19099999964237213,25.922006607055664 0.3179999887943268,25.71100616455078 0.6930000185966492,25.33600616455078 C1.0679999589920044,24.96100616455078 1.2790000438690186,24.45200538635254 1.2790000438690186,23.922006607055664 C1.2790000438690186,23.922006607055664 1.2790000438690186,-81.44499969482422 1.2790000438690186,-81.44499969482422 C1.2790000438690186,-84.09700012207031 2.3329999446868896,-86.64099884033203 4.208000183105469,-88.51599884033203 C6.083000183105469,-90.39099884033203 8.626999855041504,-91.44499969482422 11.279000282287598,-91.44499969482422 C11.279000282287598,-91.44499969482422 29.999000549316406,-91.44499969482422 29.999000549316406,-91.44499969482422z"/></g></g></g></g></svg>